<?xml version="1.0" encoding="utf-8"?>
<!-- Generator: Adobe Illustrator 28.0.0, SVG Export Plug-In . SVG Version: 6.00 Build 0)  -->
<svg version="1.1" id="Layer_1" xmlns="http://www.w3.org/2000/svg" xmlns:xlink="http://www.w3.org/1999/xlink" x="0px" y="0px"
	 viewBox="0 0 161.3 45.7" style="enable-background:new 0 0 161.3 45.7;" xml:space="preserve">
<style type="text/css">
	.st0{fill:#066ECC;}
</style>
<g id="Layer_2_00000095311492042708721030000009598607067566565760_">
	<path class="st0" d="M27.7,30.9c0-7.1-3.7-14.5-13.4-14.5C6,16.4,0,22.6,0,30.9s5.5,14.5,14.2,14.5c5.3,0,9.3-1.9,12.2-5.6l-4-3
		c-2,2.5-4.4,4.1-7.6,4.1c-4.8,0-9.3-3.2-9.3-8h22.1V30.9z M5.6,28.6c0.3-4.5,4-8,8.6-8c5.3,0,7.8,3.4,8,8H5.6z"/>
	<path class="st0" d="M52.1,26.8v-5.2h14.7v20.3c-4,2.4-10.6,3.8-15.6,3.8c-14,0-22-9.9-22-21.6c0-12.2,8.9-21.6,21.5-21.6
		c7.6,0,12.1,2,15.4,5.3l-4,4.2c-3-2.9-7.2-4.5-11.4-4.3c-9.4,0-15.5,7.4-15.5,16.4c0,9.3,6.9,16.4,16,16.4c3.5,0.1,7-0.6,10.1-2.2
		V26.8H52.1z"/>
	<path class="st0" d="M75.2,11c-2.1,0-3.8-1.7-3.8-3.8c0-2.1,1.7-3.8,3.8-3.8c2.1,0,3.8,1.7,3.8,3.8C79,9.3,77.3,11,75.2,11z"/>
	<polygon class="st0" points="77.8,44.6 72.6,44.6 72.6,17.1 77.8,17.1 77.8,44.6 	"/>
	<path class="st0" d="M97.4,5.1c-1-0.4-2-0.6-3-0.5c-3.8,0-4.4,2.4-4.4,6.2v6.3h6.2v4.5h-6.3v23h-5.2v-23h-5.9v-4.5h5.9v-6.2
		C84.7,3.6,87.2,0,94.1,0c1.3,0,2.6,0.1,3.9,0.4L97.4,5.1L97.4,5.1z"/>
	<path class="st0" d="M109.8,40.4c1.3,0.1,2.6-0.2,3.7-0.8v4.8c-1.5,0.6-3.1,0.9-4.7,0.9c-8.1,0-8.2-4.9-8.2-9.3V21.6h-6v-4.5h6V9.4
		h5.2v7.7h7.5v4.5h-7.5v12.5C105.8,37.2,105.8,40.4,109.8,40.4L109.8,40.4z"/>
	<path class="st0" d="M142.6,30.9c0-7.1-3.7-14.5-13.4-14.5c-8.2,0-14.2,6.2-14.2,14.5s5.5,14.5,14.2,14.5c5.3,0,9.3-1.9,12.2-5.6
		l-3.9-3c-2,2.5-4.4,4.1-7.6,4.1c-4.8,0-9.3-3.2-9.3-8h22.1L142.6,30.9z M120.5,28.6c0.3-4.5,4-8,8.6-8c5.3,0,7.8,3.4,8,8H120.5z"/>
	<path class="st0" d="M161.1,22.4c-0.8-0.2-1.7-0.4-2.6-0.4c-5.1,0-7.9,2.8-7.9,8.8v13.8h-5.2V17.1h5.2v4.2h0.1
		c1.6-3.1,4.8-5,8.3-4.9c0.8,0,1.6,0.1,2.3,0.4L161.1,22.4L161.1,22.4z"/>
	<path class="st0" d="M157,39c0.4,0.2,0.7,0.4,1,0.7c0.3,0.3,0.5,0.6,0.7,1c0.2,0.4,0.3,0.8,0.2,1.2c0,0.4-0.1,0.9-0.2,1.3
		c-0.2,0.4-0.4,0.7-0.7,1c-0.6,0.6-1.4,0.9-2.3,0.9c-0.4,0-0.9-0.1-1.3-0.2c-0.4-0.2-0.7-0.4-1-0.7c-0.3-0.3-0.5-0.6-0.7-1
		c-0.2-0.4-0.2-0.8-0.2-1.3c0-0.8,0.3-1.7,0.9-2.3c0.3-0.3,0.6-0.5,1-0.7c0.4-0.2,0.8-0.2,1.3-0.2C156.2,38.7,156.6,38.8,157,39z
		 M154.7,39.4c-0.3,0.1-0.6,0.3-0.9,0.6c-0.2,0.2-0.4,0.5-0.6,0.9c-0.3,0.7-0.3,1.5,0,2.1c0.1,0.3,0.3,0.6,0.6,0.9
		c0.2,0.2,0.5,0.4,0.9,0.6c0.3,0.2,0.7,0.2,1.1,0.2c0.4,0,0.7-0.1,1.1-0.2c0.7-0.3,1.2-0.8,1.4-1.5c0.3-0.7,0.3-1.5,0-2.1
		C157.6,39.5,156.1,38.8,154.7,39.4C154.7,39.4,154.7,39.4,154.7,39.4L154.7,39.4z M154.6,43.8v-3.7h1.4c0.3,0,0.7,0.1,0.9,0.3
		c0.2,0.2,0.3,0.5,0.3,0.8c0,0.1,0,0.3-0.1,0.4c0,0.1-0.1,0.2-0.2,0.3c-0.1,0.1-0.2,0.1-0.3,0.2c-0.1,0-0.2,0.1-0.4,0.1l1.1,1.6
		h-0.5l-1-1.6H155v1.6L154.6,43.8z M156.1,41.8c0.1,0,0.2,0,0.4-0.1c0.1,0,0.2-0.1,0.2-0.2c0.1-0.1,0.1-0.2,0.1-0.4
		c0-0.1,0-0.2-0.1-0.3c0-0.1-0.1-0.2-0.2-0.2c-0.1,0-0.2-0.1-0.3-0.1c-0.1,0-0.2,0-0.3,0H155v1.3L156.1,41.8L156.1,41.8z"/>
</g>
</svg>