<svg id="WSJLogo" xmlns="http://www.w3.org/2000/svg" viewBox="0 0 190.49 16.14"><defs><style>#WSJLogo .cls-1{fill:#1c1c21;}</style></defs><g id="Layer_1-2"><g id="layer1"><path id="path13406" class="cls-1" d="m189.47,13.92c-.55,0-1.02.46-1.02,1.09s.46,1.09,1.02,1.09,1.02-.46,1.02-1.09-.46-1.09-1.02-1.09m-36.76,2.1h4.66v-.42l-.51-.12c-.46-.12-.67-.37-.67-1.02v-6.28h1.09c.67,0,1.02.16,1.06,1.57l.12,2.96c.09,2.66.85,3.39,2.15,3.39s1.66-.9,1.66-2.17v-.53h-.49v.39c0,.85-.11,1.46-.44,1.46-.3,0-.32-.23-.39-1.29l-.14-2.03c-.18-2.73-.53-3.67-2.54-4.04,1.92-.51,3.09-1.92,3.09-3.93,0-2.61-2.06-3.86-4.02-3.86h-7.87v.42l.44.09c.83.18.85.62.85,2.49v9.19c0,2.06-.58,3.05-1.89,3.05-1.18,0-1.82-.58-1.82-2.82V1.62c0-.65.21-.83.72-.95l.62-.14V.12h-4.83v.42l.51.14c.46.14.62.32.62.97v10.74c0,2.42,1.41,3.76,3.56,3.76s3.21-1.34,3.21-3.83V2.29c0-1.25.25-1.69,1.27-1.69.81,0,1.16.28,1.16,1.04v12.84c0,.65-.21.88-.67.99l-.51.14v.42h0Zm30.99-14.39c0-.65.21-.85.67-.95l.62-.14V.12h-4.8v.42l.51.14c.46.14.67.32.67.97v12.93c0,.62-.25.97-.97.97-.83,0-.95-.28-1.25-1.64L176.19.07h-.92l-2.82,13.39c-.32,1.5-.49,1.85-1.11,2.03l-.39.12v.42h3.3v-.42l-.48-.09c-.69-.14-.88-.51-.53-2.26l1.66-8.57,1.82,9.08c.28,1.32.25,1.57-.74,1.75l-.48.09v.42h12.24v-5.26h-.44c-.23,2.42-.72,4.71-2.68,4.71h-.92V1.64h0Zm-7.2,10.09v-.62h-3.12l-.09.62h3.21Zm-12.89-9.81v11.04c0,1.66,0,2.45-.83,2.59l-.42.07v.42h3.39v-.42c-1.48-.21-1.48-.72-1.48-2.52V2.61l-.55-.51,5.66,13.92h.97V3.19c0-1.89,0-2.31.92-2.56l.32-.09V.12h-3.49v.42l.39.09c1.18.21,1.18.67,1.18,2.42v8.04l.23-.07L165.62.12h-3.3v.42l.32.09c.37.12.58.53.97,1.29m-7.41-1.25h.92c.92,0,1.78.6,1.78,3.6s-.65,3.37-1.94,3.37h-.76V.67Zm-15.38,7.25c0,6.67-.55,7.62-1.76,7.62s-1.73-.95-1.73-7.57.58-7.34,1.73-7.34,1.76.92,1.76,7.3m2.52.14c0-4.41-1.41-8.06-4.27-8.06s-4.25,3.65-4.25,8.06,1.41,8.08,4.25,8.08,4.27-3.65,4.27-8.08m-9.88-6.42c0-.65.16-.85.62-.97l.51-.14V.12h-4.78v.42l.58.14c.46.12.72.28.72.95v11.11c0,1.55-.14,2.79-1.29,2.79-.74,0-1.29-.58-1.27-.99.07-.72,1.27-.67,1.36-1.82.07-.83-.46-1.18-.95-1.25-.72-.09-1.59.51-1.62,1.71-.02,1.55.99,2.96,2.73,2.96,1.92,0,3.39-1.29,3.39-3.76V1.64h0Zm-77.13,0c0-.65.21-.85.67-.95l.62-.14V.12h-4.8v.42l.51.14c.46.14.67.32.67.97v12.93c0,.62-.25.97-.97.97-.83,0-.97-.28-1.27-1.64L48.79.07h-.92l-2.82,13.39c-.32,1.5-.49,1.85-1.11,2.03l-.39.12v.42h3.3v-.42l-.49-.09c-.69-.14-.88-.51-.53-2.26l1.66-8.61,1.82,9.12c.25,1.32.25,1.57-.74,1.75l-.49.09v.42h12.26v-5.26h-.44c-.23,2.42-.72,4.71-2.68,4.71h-.92V1.64Zm64.29-.97h.51c1.43,0,1.92,2.29,2.08,4.71h.44V.12h-8.38v5.27h.44c.16-2.42.65-4.71,2.08-4.71h.51v13.81c0,.65-.21.88-.67.99l-.6.14v.42h4.99v-.42l-.72-.16c-.44-.12-.67-.25-.67-.97V.67h0Zm-10.55,7.37l.72.02c1.04.02,1.34.42,1.55,2.93h.44v-6.42h-.44c-.25,2.01-.53,2.86-1.52,2.89l-.74.02V.67h1.59c1.78,0,2.17,2.24,2.42,4.71h.44V.12h-7.97v.42l.51.14c.53.14.67.46.67.99v12.82c0,.65-.21.88-.67.99l-.51.14v.42h8.2v-5.26h-.44c-.28,2.4-.58,4.71-2.66,4.71h-1.59v-7.44h0Zm-8.71,0l.72.02c1.04.02,1.34.42,1.55,2.93h.44v-6.42h-.44c-.25,2.01-.53,2.86-1.52,2.89l-.74.02V.67h1.59c1.78,0,2.17,2.29,2.42,4.71h.44V.12h-8.2v.42l.74.14c.53.14.67.46.67.99v12.82c0,.65-.21.88-.67.99l-.51.14v.42h8.2v-5.26h-.44c-.28,2.4-.58,4.71-2.66,4.71h-1.59v-7.44h0Zm-9.49-7.37h.69c.92,0,1.78.6,1.78,3.6s-.65,3.37-1.94,3.37h-.53V.67Zm-3.49,15.36h4.66v-.42l-.51-.12c-.46-.12-.67-.37-.67-1.02v-6.28h.85c.67,0,1.02.28,1.06,1.57l.12,2.96c.09,2.66.85,3.39,2.15,3.39s1.66-.9,1.66-2.17v-.53h-.48v.39c0,.85-.12,1.46-.44,1.46-.3,0-.32-.23-.39-1.29l-.14-2.03c-.18-2.79-.55-3.67-2.54-4.04,1.92-.51,3.09-1.92,3.09-3.93,0-2.61-2.06-3.86-4.02-3.86h-4.41v.42l.51.14c.46.14.67.32.67.97v12.84c0,.65-.21.88-.67.99l-.51.14v.42h0Zm-3.53-15.36h.51c1.43,0,1.92,2.29,2.08,4.71h.44V.12h-8.38v5.27h.44c.16-2.42.65-4.71,2.08-4.71h.51v13.81c0,.65-.21.88-.67.99l-.6.14v.42h4.87v-.42l-.6-.14c-.6-.14-.67-.6-.67-.99V.67Zm-5.33,11.22c0-4.73-5.2-5.98-5.2-9.42,0-.74.28-1.85,1.43-1.85,1.66,0,2.29,2.15,2.56,4.76h.44V.12h-.28c-.12.51-.32.74-.62.74-.53,0-.81-.83-2.08-.83-1.96,0-3.3,1.64-3.3,3.79,0,3.9,5.2,5.54,5.2,9.14,0,1.64-.76,2.56-1.8,2.56-1.55,0-2.56-1.82-2.84-4.76h-.44v5.26h.28c.23-.76.53-.83.78-.83.44,0,.9.92,2.24.92,2.06,0,3.63-1.78,3.63-4.23m-15.13-10.25c0-.65.21-.85.67-.95l.62-.14V.12h-4.8v.42l.51.14c.46.14.67.32.67.97v12.84c0,.65-.21.88-.67.99l-.51.14v.42h7.55v-5.26h-.44c-.23,2.42-.72,4.71-2.68,4.71h-.92V1.64Zm-15.29,10.09v-.62h-3.12l-.09.62h3.21Zm-13.35,4.34h.95l2.15-11.36h-.32l2.36,11.36h.83l2.82-13.39c.3-1.41.46-1.89,1.02-2.03l.44-.12V.12h-3.26v.42l.49.09c.69.14.85.55.53,2.26l-1.82,8.98h.28l-1.85-9.47c-.18-.9-.3-1.64.46-1.78l.51-.09V.12h-4.46v.42l.3.07c.46.12.53.39.72,1.27l.72,3.44-.14-2.08-1.59,8.41h.21l-1.87-9.24c-.21-.95-.28-1.66.46-1.8l.35-.07V.12h-4.55v.42l.44.12c.42.12.65.32.92,1.59l2.93,13.83h0Zm-12.33-8.04l.72.02c1.04.02,1.34.42,1.55,2.93h.44v-6.42h-.44c-.25,2.01-.53,2.86-1.52,2.89l-.74.02V.67h1.59c1.78,0,2.17,2.29,2.42,4.71h.44V.12h-7.97v.42l.51.14c.53.14.67.46.67.99v12.82c0,.65-.21.88-.67.99l-.51.14v.42h8.2v-5.26h-.44c-.28,2.4-.58,4.71-2.66,4.71h-1.59v-7.44h0Zm-14.53,7.99h4.73v-.42l-.53-.12c-.42-.09-.69-.37-.69-1.02v-6.3h3.49v6.3c0,.65-.28.92-.69,1.02l-.53.12v.42h4.73v-.42l-.51-.14c-.46-.12-.67-.37-.67-1.02V1.64c0-.65.21-.85.67-.97l.51-.14V.12h-4.73v.42l.53.14c.39.12.69.28.69.95v5.93h-3.49V1.62c0-.65.25-.83.69-.95l.53-.14V.12h-4.73v.42l.51.14c.46.14.67.32.67.97v12.84c0,.65-.21.88-.67.99l-.51.14v.42h0ZM5.36.67h.51c1.43,0,1.92,2.29,2.08,4.71h.44V.12H0v5.27h.44C.6,2.96,1.09.67,2.52.67h.51v13.81c0,.65-.21.88-.67.99l-.6.14v.42h4.99v-.42l-.72-.16c-.44-.12-.67-.25-.67-.97V.67h0Z"></path></g></g></svg>