<svg id="Layer_2" xmlns="http://www.w3.org/2000/svg" viewBox="0 0 109.18 14.58"><g id="Layer_1-2"><path d="m14.61,7.28c0,2.03-.71,3.75-2.13,5.17-1.42,1.42-3.14,2.13-5.15,2.13s-3.73-.71-5.17-2.13c-1.42-1.42-2.16-3.14-2.16-5.17S.71,3.55,2.16,2.13C3.58.71,5.32,0,7.33,0s3.73.71,5.15,2.13c1.42,1.42,2.13,3.14,2.13,5.15m-.44,0c-.56-1.25-1.47-2.28-2.65-3.09-1.27-.86-2.67-1.27-4.22-1.27s-2.94.42-4.22,1.27c-1.18.78-2.06,1.81-2.65,3.09.56,1.27,1.45,2.3,2.65,3.09,1.27.83,2.67,1.27,4.22,1.27s2.94-.42,4.22-1.27c1.2-.78,2.08-1.79,2.65-3.09m-2.97,0c0,1.08-.37,1.99-1.13,2.74-.76.76-1.67,1.13-2.74,1.13s-1.99-.37-2.74-1.13-1.13-1.67-1.13-2.74.37-1.99,1.13-2.72c.76-.76,1.67-1.13,2.74-1.13s1.99.37,2.74,1.13c.74.74,1.13,1.67,1.13,2.72"></path><path d="m15.91,7.28c0-3.77,3.11-6.89,7.16-6.89,3.68,0,5.56,2.65,5.56,2.65l-1.89,1.89s-1.32-1.89-3.68-1.89-4.24,1.89-4.24,4.24,1.89,4.24,4.24,4.24,3.77-1.89,3.77-1.89l1.89,1.89s-1.89,2.65-5.66,2.65c-4.04.02-7.16-3.11-7.16-6.89"></path><path d="m29.78.71h5.56c2.65,0,4.24,1.59,4.24,3.48,0,2.08-1.79,2.72-1.79,2.72,0,0,2.45.66,2.45,3.21,0,2.08-1.69,3.77-4.53,3.77h-5.93V.71Zm5.37,5.07c.93,0,1.52-.56,1.52-1.32s-.56-1.32-1.52-1.32h-2.55v2.65h2.55Zm.39,5.64c1.13,0,1.79-.66,1.79-1.59s-.66-1.59-1.79-1.59h-2.92v3.21h2.92v-.02Z"></path><path d="m40.59,12.11l1.89-1.89s1.13,1.42,3.11,1.42c1.49,0,2.16-.66,2.16-1.52,0-2.25-6.59-1.23-6.59-5.83,0-2.08,1.79-3.87,4.8-3.87s4.44,1.79,4.44,1.79l-1.89,1.89s-.93-1.13-2.45-1.13c-1.42,0-1.99.56-1.99,1.32,0,2.25,6.59,1.23,6.59,5.83,0,2.16-1.89,4.04-5,4.04-3.38.02-5.07-2.06-5.07-2.06"></path><polygon points="55.36 .71 57.91 .71 64.36 8.87 64.36 .71 67.15 .71 67.15 13.87 64.6 13.87 58.23 5.69 58.23 13.87 55.36 13.87 55.36 .71"></polygon><polygon points="69.06 .71 78.87 .71 78.87 3.33 71.91 3.33 71.91 5.88 77.37 5.88 77.37 8.43 71.91 8.43 71.91 11.27 79.06 11.27 79.06 13.87 69.06 13.87 69.06 .71"></polygon><polygon points="79.72 .71 82.64 .71 85.39 9.56 85.46 9.56 88.2 .71 90.85 .71 93.57 9.56 93.67 9.56 96.41 .71 99.33 .71 94.99 13.87 92.25 13.87 89.6 5.29 89.45 5.29 86.78 13.87 84.06 13.87 79.72 .71"></polygon><path d="m99.11,12.11l1.89-1.89s1.13,1.42,3.11,1.42c1.49,0,2.16-.66,2.16-1.52,0-2.25-6.59-1.23-6.59-5.83,0-2.08,1.79-3.87,4.8-3.87s4.44,1.79,4.44,1.79l-1.89,1.89s-.93-1.13-2.45-1.13c-1.42,0-1.99.56-1.99,1.32,0,2.25,6.59,1.23,6.59,5.83,0,2.16-1.89,4.04-5,4.04-3.38.02-5.07-2.06-5.07-2.06"></path></g></svg>