<svg id="ForbesLogo" xmlns="http://www.w3.org/2000/svg" viewBox="0 0 63.47 16.61"><defs><style>#ForbesLogo .cls-1{fill:#336299;}</style></defs><g id="Layer_1-2"><path class="cls-1" d="m6.13,1.55h1.39c.85-.12,1.71-.02,2.5.32.99.6,1.71,1.55,2,2.67q.21.59.71.38h.39V.28H.03v.82h.54c.47,0,.92.21,1.22.57.5.8.59,1.71.59,6.4,0,4.99-.11,6.21-.59,6.83-.24.32-.61.52-1.01.54-.74.13-.74.12-.74.45-.04.11-.04.23,0,.34h8.25c.11-.22.11-.48,0-.69-.2-.06-.4-.1-.61-.12-.22-.03-.44-.07-.66-.13-.63-.46-.97-1.21-.89-1.99-.12-.8-.18-2.28-.18-3.5v-.96h.49c.61-.02,1.21.05,1.8.2.57.35.96.94,1.05,1.61l.11.38h.74v-5.4h-.68l-.11.52c-.09.68-.51,1.28-1.11,1.61-.29.09-.59.11-.89.06h-1.4v-1.32c0-1.37.07-4.24.12-4.69l.06-.24Zm57.06,9.67c-.58-.93-1.48-1.61-2.52-1.91-.8-.25-1.55-.67-2.18-1.22-.29-.28-.42-.69-.35-1.09,0-.38.15-.75.43-1.02.38-.39.94-.55,1.46-.4,1.09.31,1.91,1.19,2.16,2.29.2.55.22.55.57.4l.22-.09v-3.04l-.16-.07c-1.2-.42-2.47-.6-3.74-.51-1.09.03-2.14.46-2.93,1.22-.72.68-1.11,1.64-1.06,2.63,0,.75.3,1.47.83,2,.58.57,1.29.99,2.07,1.22,1.89.74,2.44,1.22,2.44,2.08.02.75-.49,1.42-1.22,1.6-.43.09-.87.09-1.29,0-1.13-.44-1.98-1.4-2.28-2.57l-.16-.39h-.22c-.1,0-.21.03-.3.07h-.12v3.46h.21c.82.27,1.67.46,2.54.56h1.22c.53.04,1.06-.01,1.57-.15,1.32-.24,2.42-1.17,2.88-2.44.15-.35.22-.72.22-1.1.05-.53-.04-1.06-.27-1.55Zm-11.49-6.3c-1.48-.62-3.15-.58-4.6.11-1.36.66-2.37,1.87-2.79,3.33-.26.78-.38,1.61-.33,2.44,0,.45.03.9.11,1.34.4,2.23,2.15,3.97,4.38,4.36.71.09,1.43.09,2.13,0,.74-.13,1.44-.4,2.07-.79.52-.29.97-.71,1.29-1.22-.04-.16-.15-.3-.29-.38-.14.05-.27.12-.39.21-.61.4-1.32.6-2.05.57-.98.07-1.93-.31-2.6-1.02-.26-.24-.47-.52-.62-.83-.38-.76-.58-1.59-.6-2.44v-.48h6.75v-.24c.01-.24.01-.49,0-.73,0-1.75-.95-3.37-2.48-4.23Zm-3.4,4.22h-.85v-.72c.28-1.84.98-2.94,1.83-2.94s1.22,1.09,1.38,3.07v.56h-.73l-1.62.02Zm-17.53-4.62c-.42-.02-.84.07-1.22.26-.82.4-1.49,1.07-1.89,1.89l-.16.29v-2.44h-.06c-.15,0-4.66.9-4.8.96s-.1.07-.1.29,0,.26.1.27l.48.1c.27,0,.52.14.68.35.3.4.37,1.11.37,4.12.06,1.36,0,2.71-.17,4.06-.08.42-.42.73-.84.79l-.41.09h-.16v.34c-.04.11-.04.24,0,.35h6.82v-.35c.02-.12.02-.24,0-.35-.41-.02-.82-.07-1.22-.16-.45-.23-.7-.72-.65-1.22-.1-.71-.15-2.78-.12-4.36s0-1.68.13-1.79c.41-.31.91-.47,1.43-.45.48.01.96.13,1.39.35.15.08.31.14.48.18,0,0,1.22-2.95,1.22-3.08-.32-.37-.8-.55-1.28-.49Zm-8.22,5.12c-.09-1.77-1.02-3.38-2.51-4.34-1.77-.95-3.89-1.01-5.71-.16-1.27.67-2.23,1.81-2.67,3.17-.46,1.53-.46,3.15,0,4.68.24.83.69,1.59,1.3,2.21.77.75,1.75,1.23,2.82,1.37.68.06,1.37.06,2.05,0,.25-.04.5-.09.74-.16,2.03-.57,3.54-2.25,3.89-4.33.12-.81.15-1.63.09-2.44Zm-5.07,6.1c-1.22.37-2.13-.82-2.44-3.3-.11-1.3-.11-2.61,0-3.91.24-2,.87-3.01,1.83-3.01.39-.02.78.14,1.02.45.82.82,1.22,2.44,1.22,4.88.1,1.38-.12,2.76-.63,4.05-.23.37-.58.65-1,.79v.06Zm21.95-10.97c-.34-.04-.69-.04-1.04,0-.66,0-1.31.14-1.91.41l-.38.16v-2.65c.07-.89.07-1.79,0-2.68-.15,0-4.8.89-4.88.93-.04.09-.04.19,0,.28,0,.26,0,.24.55.37.15.03.3.09.44.17.24.22.4.52.45.84.14.93.18,1.87.13,2.8v10.7l.33.07c.49.11,1.87.34,2.32.39.9.07,1.81.07,2.71,0,2.04-.21,3.79-1.53,4.56-3.43.22-.6.38-1.22.46-1.85.07-.86.04-1.72-.09-2.57-.27-1.95-1.73-3.53-3.66-3.95h0Zm-3.19,10.77c0-.16-.12-5.5-.1-7.63v-1.67l.35-.09c.24-.03.48-.03.72,0,.26-.03.53.03.76.17.92.64,1.5,1.66,1.57,2.78.09.89.09,1.78,0,2.67-.07,1.29-.57,2.52-1.41,3.5-.24.23-.54.38-.87.44-.25.04-.5.04-.74,0-.23,0-.23-.07-.23-.17h-.05Z"></path></g></svg>