<?xml version="1.0" encoding="utf-8"?>
<!-- Generator: Adobe Illustrator 26.0.3, SVG Export Plug-In . SVG Version: 6.00 Build 0)  -->
<svg version="1.1" id="Layer_1" xmlns="http://www.w3.org/2000/svg" xmlns:xlink="http://www.w3.org/1999/xlink" x="0px" y="0px"
	 viewBox="0 0 56 56" style="enable-background:new 0 0 56 56;" xml:space="preserve">
<desc>Created with Sketch.</desc>
<path id="_xF8FF_" d="M28.6,13.1c2.4,0,5.4-1.7,7.2-3.9c1.6-2,2.8-4.9,2.8-7.7c0-0.4,0-0.8-0.1-1.1c-2.7,0.1-5.9,1.9-7.9,4.2
	c-1.5,1.8-2.9,4.6-2.9,7.5c0,0.4,0.1,0.8,0.1,1C28.1,13.1,28.4,13.1,28.6,13.1z M20.1,55.5c3.3,0,4.8-2.3,8.9-2.3
	c4.2,0,5.1,2.2,8.8,2.2c3.6,0,6-3.4,8.3-6.8c2.6-3.9,3.6-7.6,3.7-7.8c-0.2-0.1-7.1-3-7.1-11.2c0-7.1,5.4-10.3,5.8-10.5
	c-3.6-5.3-9.1-5.5-10.6-5.5c-4,0-7.4,2.5-9.4,2.5c-2.2,0-5.2-2.4-8.7-2.4c-6.7,0-13.4,5.7-13.4,16.4c0,6.7,2.5,13.7,5.6,18.3
	C14.5,52.4,16.8,55.5,20.1,55.5z"/>
</svg>
